<svg width="31" height="31" viewBox="0 0 31 31" fill="none" xmlns="http://www.w3.org/2000/svg">
<path d="M22.3289 30.6825C10.1921 30.6825 0.317627 20.808 0.317627 8.6712C0.322216 6.58939 1.08263 4.58008 2.45749 3.01684C3.83235 1.4536 5.72811 0.442814 7.79229 0.172405C8.31849 0.114061 8.84959 0.224848 9.30859 0.4887C9.76758 0.752551 10.1306 1.15575 10.345 1.63982L13.4174 8.80877C13.5768 9.18089 13.6407 9.58691 13.6033 9.98999C13.5659 10.3931 13.4285 10.7804 13.2034 11.1169L10.666 14.9994C11.815 17.3312 13.7082 19.2137 16.0465 20.3494L19.8832 17.7967C20.2193 17.5701 20.6076 17.433 21.0115 17.3982C21.4154 17.3634 21.8214 17.4322 22.1913 17.598L29.3603 20.6551C29.8443 20.8695 30.2475 21.2325 30.5114 21.6915C30.7752 22.1505 30.886 22.6816 30.8277 23.2078C30.5573 25.272 29.5465 27.1677 27.9833 28.5426C26.42 29.9175 24.4107 30.6779 22.3289 30.6825ZM8.098 2.60282C6.62286 2.79244 5.26742 3.51325 4.28546 4.63027C3.30349 5.74729 2.76234 7.18393 2.76332 8.6712C2.76737 13.8591 4.83004 18.8333 8.49842 22.5017C12.1668 26.1701 17.141 28.2327 22.3289 28.2368C23.8162 28.2378 25.2528 27.6966 26.3698 26.7146C27.4869 25.7327 28.2077 24.3772 28.3973 22.9021L21.2283 19.845L17.4069 22.3977C17.0553 22.6301 16.6496 22.7678 16.2291 22.7972C15.8086 22.8267 15.3877 22.747 15.0071 22.5658C12.1593 21.1883 9.85574 18.8955 8.46485 16.0541C8.28147 15.6748 8.19918 15.2546 8.22596 14.8341C8.25274 14.4137 8.38768 14.0073 8.61771 13.6543L11.1704 9.77176L8.098 2.60282Z" fill="white"/>
</svg>
