<svg width="36" height="25" viewBox="0 0 36 25" fill="none" xmlns="http://www.w3.org/2000/svg">
<path d="M3.53077 25C2.55981 25 1.7289 24.6943 1.03805 24.0828C0.346016 23.4703 0 22.7344 0 21.875V3.125C0 2.26562 0.346016 1.53021 1.03805 0.91875C1.7289 0.30625 2.55981 0 3.53077 0H31.7769C32.7479 0 33.5794 0.30625 34.2714 0.91875C34.9623 1.53021 35.3077 2.26562 35.3077 3.125V21.875C35.3077 22.7344 34.9623 23.4703 34.2714 24.0828C33.5794 24.6943 32.7479 25 31.7769 25H3.53077ZM17.6538 14.0625L3.53077 6.25V21.875H31.7769V6.25L17.6538 14.0625ZM17.6538 10.9375L31.7769 3.125H3.53077L17.6538 10.9375ZM3.53077 6.25V3.125V21.875V6.25Z" fill="white"/>
</svg>
