<svg width="31" height="32" viewBox="0 0 31 32" fill="none" xmlns="http://www.w3.org/2000/svg">
<path d="M27.3833 30.5444L17.7389 20.9C16.8778 21.5889 15.8875 22.1343 14.7681 22.5361C13.6486 22.938 12.4574 23.1389 11.1944 23.1389C8.06574 23.1389 5.41811 22.0556 3.25156 19.8891C1.08385 17.7214 0 15.0731 0 11.9444C0 8.81574 1.08385 6.16754 3.25156 3.99983C5.41811 1.83328 8.06574 0.75 11.1944 0.75C14.3231 0.75 16.9714 1.83328 19.1391 3.99983C21.3056 6.16754 22.3889 8.81574 22.3889 11.9444C22.3889 13.2074 22.188 14.3986 21.7861 15.5181C21.3843 16.6375 20.8389 17.6278 20.15 18.4889L29.8375 28.1764C30.1532 28.4921 30.3111 28.8796 30.3111 29.3389C30.3111 29.7981 30.1389 30.2 29.7944 30.5444C29.4787 30.8602 29.0769 31.0181 28.5889 31.0181C28.1009 31.0181 27.6991 30.8602 27.3833 30.5444ZM11.1944 19.6944C13.3472 19.6944 15.1774 18.9413 16.6849 17.4349C18.1913 15.9274 18.9444 14.0972 18.9444 11.9444C18.9444 9.79167 18.1913 7.96152 16.6849 6.454C15.1774 4.94763 13.3472 4.19444 11.1944 4.19444C9.04167 4.19444 7.21152 4.94763 5.704 6.454C4.19763 7.96152 3.44444 9.79167 3.44444 11.9444C3.44444 14.0972 4.19763 15.9274 5.704 17.4349C7.21152 18.9413 9.04167 19.6944 11.1944 19.6944Z" fill="#F9AA01"/>
</svg>
