<svg width="31" height="32" viewBox="0 0 31 32" fill="none" xmlns="http://www.w3.org/2000/svg">
<path d="M15.5 28.3611C8.6645 28.3611 3.1 22.793 3.1 15.953C3.1 9.11304 8.6645 3.5449 15.5 3.5449C22.3355 3.5449 27.9 9.11304 27.9 15.953C27.9 22.793 22.3355 28.3611 15.5 28.3611ZM15.5 31.4631C24.056 31.4631 31 24.5146 31 15.953C31 7.39141 24.056 0.442871 15.5 0.442871C6.944 0.442871 0 7.39141 0 15.953C0 24.5146 6.944 31.4631 15.5 31.4631ZM13.95 15.953V22.1571H17.05V15.953H21.7L15.5 9.74895L9.3 15.953H13.95Z" fill="#F9AA01"/>
</svg>
