<svg width="31" height="31" viewBox="0 0 31 31" fill="none" xmlns="http://www.w3.org/2000/svg">
<path d="M20.4319 15.4998C20.4319 16.4752 20.1426 17.4288 19.6007 18.2398C19.0588 19.0508 18.2886 19.683 17.3874 20.0562C16.4862 20.4295 15.4946 20.5272 14.5379 20.3369C13.5812 20.1466 12.7025 19.6769 12.0127 18.9871C11.323 18.2974 10.8533 17.4187 10.663 16.462C10.4727 15.5053 10.5704 14.5137 10.9437 13.6125C11.3169 12.7113 11.9491 11.9411 12.7601 11.3992C13.5711 10.8573 14.5246 10.568 15.5001 10.568C16.8068 10.5721 18.0589 11.093 18.9829 12.017C19.9069 12.941 20.4278 14.1931 20.4319 15.4998ZM30.912 8.71857V22.2811C30.912 24.5701 30.0027 26.7653 28.3841 28.3839C26.7656 30.0025 24.5703 30.9118 22.2813 30.9118H8.71882C6.42982 30.9118 4.23457 30.0025 2.616 28.3839C0.997436 26.7653 0.0881348 24.5701 0.0881348 22.2811V8.71857C0.0881348 6.42957 0.997436 4.23433 2.616 2.61576C4.23457 0.997192 6.42982 0.0878906 8.71882 0.0878906H22.2813C24.5703 0.0878906 26.7656 0.997192 28.3841 2.61576C30.0027 4.23433 30.912 6.42957 30.912 8.71857ZM22.8978 15.4998C22.8978 14.0367 22.4639 12.6064 21.6511 11.3899C20.8382 10.1733 19.6828 9.22513 18.3311 8.66521C16.9793 8.1053 15.4919 7.9588 14.0568 8.24424C12.6218 8.52968 11.3037 9.23425 10.2691 10.2688C9.23449 11.3034 8.52993 12.6216 8.24448 14.0566C7.95904 15.4916 8.10554 16.9791 8.66546 18.3308C9.22537 19.6826 10.1736 20.8379 11.3901 21.6508C12.6067 22.4637 14.0369 22.8975 15.5001 22.8975C17.4621 22.8975 19.3437 22.1181 20.7311 20.7308C22.1184 19.3435 22.8978 17.4618 22.8978 15.4998ZM25.3637 7.48562C25.3637 7.11983 25.2552 6.76227 25.052 6.45813C24.8488 6.15399 24.56 5.91694 24.222 5.77697C23.8841 5.63699 23.5122 5.60036 23.1535 5.67172C22.7947 5.74308 22.4652 5.91922 22.2065 6.17787C21.9479 6.43652 21.7717 6.76606 21.7004 7.12481C21.629 7.48357 21.6656 7.85542 21.8056 8.19336C21.9456 8.5313 22.1826 8.82015 22.4868 9.02336C22.7909 9.22658 23.1485 9.33505 23.5143 9.33505C24.0048 9.33505 24.4752 9.1402 24.822 8.79336C25.1688 8.44653 25.3637 7.97612 25.3637 7.48562Z" fill="white"/>
</svg>
