<svg width="93" height="98" viewBox="0 0 93 98" fill="none" xmlns="http://www.w3.org/2000/svg">
<g filter="url(#filter0_dif_131_955)">
<path d="M11.0162 50.3865H11.006V50.3864C9.87524 50.3822 8.75248 50.6147 7.70104 51.0734C6.64815 51.5327 5.6848 52.2111 4.86879 53.0742C4.05259 53.9376 3.40033 54.9686 2.95357 56.1103C2.50685 57.2518 2.27556 58.4787 2.2749 59.7198L11.0162 50.3865ZM11.0162 50.3865H38.3946C36.2431 53.6117 35.0377 57.4588 34.9601 61.4406C34.8611 66.5241 36.6072 71.4673 39.8585 75.2418L11.0162 50.3865ZM39.8592 75.2426L47.5786 84.2159C44.0762 84.9451 40.3318 85.3031 36.4587 85.3031C27.1967 85.3031 18.7115 83.2514 12.4995 79.0449C6.24424 74.8023 2.27512 68.3464 2.2749 59.7205L39.8592 75.2426ZM63.53 55.4713L64.4901 56.2721L65.4508 55.472L68.6572 52.8016L68.6588 52.8003C70.7738 51.0341 73.4199 50.1899 76.0717 50.4118C78.7244 50.6339 81.2217 51.9097 83.0585 54.0155C84.8975 56.1238 85.9347 58.9064 85.9422 61.8129C85.9497 64.7193 84.9268 67.5082 83.0985 69.6275L83.0975 69.6286L65.2352 90.3744L65.2349 90.3747C65.131 90.4956 65.0098 90.5859 64.8826 90.6455L65.5186 92.0039L64.8826 90.6455C64.7557 90.7049 64.6226 90.7339 64.4909 90.7339C64.3591 90.7339 64.2261 90.7049 64.0992 90.6455L63.4631 92.0039L64.0991 90.6455C63.9719 90.5859 63.8508 90.4956 63.7468 90.3747L63.7467 90.3746L45.8895 69.6288L45.8884 69.6275C44.06 67.5082 43.0372 64.7193 43.0447 61.8129C43.0521 58.9065 44.0893 56.1238 45.9283 54.0155C47.7652 51.9097 50.2624 50.6339 52.9151 50.4118C55.5669 50.1899 58.2131 51.0341 60.328 52.8003L60.3287 52.8008L63.53 55.4713ZM23.1326 7.5105C26.6833 3.73762 31.479 1.63647 36.4587 1.63647C41.4384 1.63647 46.2341 3.73762 49.7848 7.5105C53.3384 11.2865 55.3494 16.4262 55.3494 21.8031C55.3494 27.1801 53.3384 32.3198 49.7848 36.0958C46.2341 39.8687 41.4384 41.9698 36.4587 41.9698C31.4789 41.9698 26.6833 39.8687 23.1326 36.0958C19.579 32.3198 17.568 27.1801 17.568 21.8031C17.568 16.4262 19.579 11.2865 23.1326 7.5105Z" stroke="white" stroke-width="3" shape-rendering="crispEdges"/>
</g>
<defs>
<filter id="filter0_dif_131_955" x="-14.2251" y="-12.8635" width="116.667" height="122.097" filterUnits="userSpaceOnUse" color-interpolation-filters="sRGB">
<feFlood flood-opacity="0" result="BackgroundImageFix"/>
<feColorMatrix in="SourceAlpha" type="matrix" values="0 0 0 0 0 0 0 0 0 0 0 0 0 0 0 0 0 0 127 0" result="hardAlpha"/>
<feOffset dy="2"/>
<feGaussianBlur stdDeviation="7.5"/>
<feComposite in2="hardAlpha" operator="out"/>
<feColorMatrix type="matrix" values="0 0 0 0 0.1508 0 0 0 0 0 0 0 0 0 0.58 0 0 0 1 0"/>
<feBlend mode="normal" in2="BackgroundImageFix" result="effect1_dropShadow_131_955"/>
<feBlend mode="normal" in="SourceGraphic" in2="effect1_dropShadow_131_955" result="shape"/>
<feColorMatrix in="SourceAlpha" type="matrix" values="0 0 0 0 0 0 0 0 0 0 0 0 0 0 0 0 0 0 127 0" result="hardAlpha"/>
<feOffset dx="1" dy="2"/>
<feGaussianBlur stdDeviation="1.5"/>
<feComposite in2="hardAlpha" operator="arithmetic" k2="-1" k3="1"/>
<feColorMatrix type="matrix" values="0 0 0 0 0.482039 0 0 0 0 0.0314167 0 0 0 0 0.58 0 0 0 1 0"/>
<feBlend mode="normal" in2="shape" result="effect2_innerShadow_131_955"/>
<feGaussianBlur stdDeviation="0.5" result="effect3_foregroundBlur_131_955"/>
</filter>
</defs>
</svg>
