<svg width="123" height="97" viewBox="0 0 123 97" fill="none" xmlns="http://www.w3.org/2000/svg">
<g filter="url(#filter0_dif_131_942)">
<path d="M42.6897 60.5541H42.0359L41.5909 61.0329L27.9928 75.6644C26.7128 76.8924 25.065 77.6593 23.3287 77.6593C21.6288 77.6593 19.9778 76.9409 18.745 75.6277C17.5092 74.3113 16.7998 72.5067 16.7998 70.6067V69.4799L21.3757 33.5065L21.3798 33.4748L21.3824 33.443C21.8158 28.2944 24.0395 23.5227 27.5919 20.0582C31.1414 16.5964 35.7592 14.6888 40.5344 14.6819H81.8246C91.7833 14.6819 100.071 22.8387 100.976 33.4448L100.978 33.4757L100.982 33.5065L105.558 69.4799V70.6067C105.558 72.5067 104.849 74.3113 103.613 75.6277C102.38 76.9409 100.729 77.6593 99.0293 77.6593C97.293 77.6593 95.6452 76.8924 94.3652 75.6645L80.767 61.0329L80.322 60.5541H79.6683H42.6897ZM38.2394 21.4563H36.7394V22.9563V31.2308H29.0636H27.5636V32.7308V37.618V39.118H29.0636H36.7394V47.3924V48.8924H38.2394H42.8273H44.3273V47.3924V39.118H52.0031H53.5031V37.618V32.7308V31.2308H52.0031H44.3273V22.9563V21.4563H42.8273H38.2394ZM81.8246 21.4563C80.4825 21.4563 79.2161 22.0251 78.2979 23.0033C77.3826 23.9782 76.8837 25.2813 76.8837 26.6217C76.8837 27.9622 77.3826 29.2653 78.2979 30.2402C79.2161 31.2183 80.4825 31.7871 81.8246 31.7871C83.1667 31.7871 84.4331 31.2183 85.3513 30.2402C86.2665 29.2653 86.7655 27.9622 86.7655 26.6217C86.7655 25.2813 86.2665 23.9782 85.3513 23.0033C84.4331 22.0251 83.1667 21.4563 81.8246 21.4563ZM73.7957 30.009C72.4536 30.009 71.1872 30.5778 70.269 31.5559C69.3538 32.5308 68.8548 33.8339 68.8548 35.1744C68.8548 36.5148 69.3538 37.8179 70.269 38.7928C71.1872 39.771 72.4536 40.3398 73.7957 40.3398C75.1378 40.3398 76.4042 39.771 77.3225 38.7928C78.2377 37.8179 78.7367 36.5148 78.7367 35.1744C78.7367 33.8339 78.2377 32.5308 77.3225 31.5559C76.4042 30.5778 75.1378 30.009 73.7957 30.009ZM89.8534 30.009C88.5113 30.009 87.2449 30.5778 86.3267 31.5559C85.4115 32.5308 84.9125 33.8339 84.9125 35.1744C84.9125 36.5148 85.4115 37.8179 86.3267 38.7928C87.2449 39.771 88.5113 40.3398 89.8534 40.3398C91.1955 40.3398 92.462 39.771 93.3802 38.7928C94.2954 37.8179 94.7944 36.5148 94.7944 35.1744C94.7944 33.8339 94.2954 32.5308 93.3802 31.5559C92.462 30.5778 91.1955 30.009 89.8534 30.009ZM81.8246 38.5616C80.4825 38.5616 79.2161 39.1304 78.2979 40.1085C77.3826 41.0834 76.8837 42.3866 76.8837 43.727C76.8837 45.0674 77.3826 46.3706 78.2979 47.3455C79.2161 48.3236 80.4825 48.8924 81.8246 48.8924C83.1667 48.8924 84.4331 48.3236 85.3513 47.3455C86.2665 46.3706 86.7655 45.0674 86.7655 43.727C86.7655 42.3866 86.2665 41.0834 85.3513 40.1085C84.4331 39.1304 83.1667 38.5616 81.8246 38.5616Z" stroke="white" stroke-width="3" shape-rendering="crispEdges"/>
</g>
<defs>
<filter id="filter0_dif_131_942" x="0.299805" y="0.181885" width="121.758" height="95.9775" filterUnits="userSpaceOnUse" color-interpolation-filters="sRGB">
<feFlood flood-opacity="0" result="BackgroundImageFix"/>
<feColorMatrix in="SourceAlpha" type="matrix" values="0 0 0 0 0 0 0 0 0 0 0 0 0 0 0 0 0 0 127 0" result="hardAlpha"/>
<feOffset dy="2"/>
<feGaussianBlur stdDeviation="7.5"/>
<feComposite in2="hardAlpha" operator="out"/>
<feColorMatrix type="matrix" values="0 0 0 0 0.1508 0 0 0 0 0 0 0 0 0 0.58 0 0 0 1 0"/>
<feBlend mode="normal" in2="BackgroundImageFix" result="effect1_dropShadow_131_942"/>
<feBlend mode="normal" in="SourceGraphic" in2="effect1_dropShadow_131_942" result="shape"/>
<feColorMatrix in="SourceAlpha" type="matrix" values="0 0 0 0 0 0 0 0 0 0 0 0 0 0 0 0 0 0 127 0" result="hardAlpha"/>
<feOffset dx="1" dy="2"/>
<feGaussianBlur stdDeviation="1.5"/>
<feComposite in2="hardAlpha" operator="arithmetic" k2="-1" k3="1"/>
<feColorMatrix type="matrix" values="0 0 0 0 0.482039 0 0 0 0 0.0314167 0 0 0 0 0.58 0 0 0 1 0"/>
<feBlend mode="normal" in2="shape" result="effect2_innerShadow_131_942"/>
<feGaussianBlur stdDeviation="0.5" result="effect3_foregroundBlur_131_942"/>
</filter>
</defs>
</svg>
